<mxfile host="app.diagrams.net" modified="2023-09-29T17:01:06.104Z" agent="Mozilla/5.0 (Windows NT 10.0; Win64; x64) AppleWebKit/537.36 (KHTML, like Gecko) Chrome/116.0.5845.2271 YaBrowser/23.9.0.2271 Yowser/2.5 Safari/537.36" etag="y_p48HNRYjtOeqbVwkvp" version="21.8.0" type="device">
  <diagram id="wl1XiJFeedQev2Ty9a4i" name="Страница 1">
    <mxGraphModel dx="1199" dy="1151" grid="1" gridSize="12" guides="1" tooltips="1" connect="1" arrows="1" fold="1" page="1" pageScale="1" pageWidth="827" pageHeight="1169" math="0" shadow="0">
      <root>
        <mxCell id="0" />
        <mxCell id="1" parent="0" />
        <mxCell id="y_2ADnTQ-EF7975qrf9e-100" value="Product" style="shape=table;startSize=30;container=1;collapsible=1;childLayout=tableLayout;fixedRows=1;rowLines=0;fontStyle=1;align=center;resizeLast=1;" parent="1" vertex="1">
          <mxGeometry x="1452" y="540" width="132" height="160" as="geometry" />
        </mxCell>
        <mxCell id="y_2ADnTQ-EF7975qrf9e-101" value="" style="shape=tableRow;horizontal=0;startSize=0;swimlaneHead=0;swimlaneBody=0;fillColor=none;collapsible=0;dropTarget=0;points=[[0,0.5],[1,0.5]];portConstraint=eastwest;top=0;left=0;right=0;bottom=1;" parent="y_2ADnTQ-EF7975qrf9e-100" vertex="1">
          <mxGeometry y="30" width="132" height="30" as="geometry" />
        </mxCell>
        <mxCell id="y_2ADnTQ-EF7975qrf9e-102" value="PK" style="shape=partialRectangle;connectable=0;fillColor=none;top=0;left=0;bottom=0;right=0;fontStyle=1;overflow=hidden;" parent="y_2ADnTQ-EF7975qrf9e-101" vertex="1">
          <mxGeometry width="30" height="30" as="geometry">
            <mxRectangle width="30" height="30" as="alternateBounds" />
          </mxGeometry>
        </mxCell>
        <mxCell id="y_2ADnTQ-EF7975qrf9e-103" value="id" style="shape=partialRectangle;connectable=0;fillColor=none;top=0;left=0;bottom=0;right=0;align=left;spacingLeft=6;fontStyle=5;overflow=hidden;" parent="y_2ADnTQ-EF7975qrf9e-101" vertex="1">
          <mxGeometry x="30" width="102" height="30" as="geometry">
            <mxRectangle width="102" height="30" as="alternateBounds" />
          </mxGeometry>
        </mxCell>
        <mxCell id="y_2ADnTQ-EF7975qrf9e-104" value="" style="shape=tableRow;horizontal=0;startSize=0;swimlaneHead=0;swimlaneBody=0;fillColor=none;collapsible=0;dropTarget=0;points=[[0,0.5],[1,0.5]];portConstraint=eastwest;top=0;left=0;right=0;bottom=0;" parent="y_2ADnTQ-EF7975qrf9e-100" vertex="1">
          <mxGeometry y="60" width="132" height="30" as="geometry" />
        </mxCell>
        <mxCell id="y_2ADnTQ-EF7975qrf9e-105" value="" style="shape=partialRectangle;connectable=0;fillColor=none;top=0;left=0;bottom=0;right=0;editable=1;overflow=hidden;" parent="y_2ADnTQ-EF7975qrf9e-104" vertex="1">
          <mxGeometry width="30" height="30" as="geometry">
            <mxRectangle width="30" height="30" as="alternateBounds" />
          </mxGeometry>
        </mxCell>
        <mxCell id="y_2ADnTQ-EF7975qrf9e-106" value="name" style="shape=partialRectangle;connectable=0;fillColor=none;top=0;left=0;bottom=0;right=0;align=left;spacingLeft=6;overflow=hidden;" parent="y_2ADnTQ-EF7975qrf9e-104" vertex="1">
          <mxGeometry x="30" width="102" height="30" as="geometry">
            <mxRectangle width="102" height="30" as="alternateBounds" />
          </mxGeometry>
        </mxCell>
        <mxCell id="y_2ADnTQ-EF7975qrf9e-107" value="" style="shape=tableRow;horizontal=0;startSize=0;swimlaneHead=0;swimlaneBody=0;fillColor=none;collapsible=0;dropTarget=0;points=[[0,0.5],[1,0.5]];portConstraint=eastwest;top=0;left=0;right=0;bottom=0;" parent="y_2ADnTQ-EF7975qrf9e-100" vertex="1">
          <mxGeometry y="90" width="132" height="30" as="geometry" />
        </mxCell>
        <mxCell id="y_2ADnTQ-EF7975qrf9e-108" value="" style="shape=partialRectangle;connectable=0;fillColor=none;top=0;left=0;bottom=0;right=0;editable=1;overflow=hidden;" parent="y_2ADnTQ-EF7975qrf9e-107" vertex="1">
          <mxGeometry width="30" height="30" as="geometry">
            <mxRectangle width="30" height="30" as="alternateBounds" />
          </mxGeometry>
        </mxCell>
        <mxCell id="y_2ADnTQ-EF7975qrf9e-109" value="discription" style="shape=partialRectangle;connectable=0;fillColor=none;top=0;left=0;bottom=0;right=0;align=left;spacingLeft=6;overflow=hidden;" parent="y_2ADnTQ-EF7975qrf9e-107" vertex="1">
          <mxGeometry x="30" width="102" height="30" as="geometry">
            <mxRectangle width="102" height="30" as="alternateBounds" />
          </mxGeometry>
        </mxCell>
        <mxCell id="y_2ADnTQ-EF7975qrf9e-110" value="" style="shape=tableRow;horizontal=0;startSize=0;swimlaneHead=0;swimlaneBody=0;fillColor=none;collapsible=0;dropTarget=0;points=[[0,0.5],[1,0.5]];portConstraint=eastwest;top=0;left=0;right=0;bottom=0;" parent="y_2ADnTQ-EF7975qrf9e-100" vertex="1">
          <mxGeometry y="120" width="132" height="30" as="geometry" />
        </mxCell>
        <mxCell id="y_2ADnTQ-EF7975qrf9e-111" value="" style="shape=partialRectangle;connectable=0;fillColor=none;top=0;left=0;bottom=0;right=0;editable=1;overflow=hidden;" parent="y_2ADnTQ-EF7975qrf9e-110" vertex="1">
          <mxGeometry width="30" height="30" as="geometry">
            <mxRectangle width="30" height="30" as="alternateBounds" />
          </mxGeometry>
        </mxCell>
        <mxCell id="y_2ADnTQ-EF7975qrf9e-112" value="price" style="shape=partialRectangle;connectable=0;fillColor=none;top=0;left=0;bottom=0;right=0;align=left;spacingLeft=6;overflow=hidden;" parent="y_2ADnTQ-EF7975qrf9e-110" vertex="1">
          <mxGeometry x="30" width="102" height="30" as="geometry">
            <mxRectangle width="102" height="30" as="alternateBounds" />
          </mxGeometry>
        </mxCell>
        <mxCell id="y_2ADnTQ-EF7975qrf9e-113" value="Cart" style="shape=table;startSize=30;container=1;collapsible=1;childLayout=tableLayout;fixedRows=1;rowLines=0;fontStyle=1;align=center;resizeLast=1;" parent="1" vertex="1">
          <mxGeometry x="1232" y="522" width="140" height="134" as="geometry" />
        </mxCell>
        <mxCell id="y_2ADnTQ-EF7975qrf9e-114" value="" style="shape=tableRow;horizontal=0;startSize=0;swimlaneHead=0;swimlaneBody=0;fillColor=none;collapsible=0;dropTarget=0;points=[[0,0.5],[1,0.5]];portConstraint=eastwest;top=0;left=0;right=0;bottom=1;" parent="y_2ADnTQ-EF7975qrf9e-113" vertex="1">
          <mxGeometry y="30" width="140" height="30" as="geometry" />
        </mxCell>
        <mxCell id="y_2ADnTQ-EF7975qrf9e-115" value="PK" style="shape=partialRectangle;connectable=0;fillColor=none;top=0;left=0;bottom=0;right=0;fontStyle=1;overflow=hidden;" parent="y_2ADnTQ-EF7975qrf9e-114" vertex="1">
          <mxGeometry width="30" height="30" as="geometry">
            <mxRectangle width="30" height="30" as="alternateBounds" />
          </mxGeometry>
        </mxCell>
        <mxCell id="y_2ADnTQ-EF7975qrf9e-116" value="id" style="shape=partialRectangle;connectable=0;fillColor=none;top=0;left=0;bottom=0;right=0;align=left;spacingLeft=6;fontStyle=5;overflow=hidden;" parent="y_2ADnTQ-EF7975qrf9e-114" vertex="1">
          <mxGeometry x="30" width="110" height="30" as="geometry">
            <mxRectangle width="110" height="30" as="alternateBounds" />
          </mxGeometry>
        </mxCell>
        <mxCell id="y_2ADnTQ-EF7975qrf9e-117" value="" style="shape=tableRow;horizontal=0;startSize=0;swimlaneHead=0;swimlaneBody=0;fillColor=none;collapsible=0;dropTarget=0;points=[[0,0.5],[1,0.5]];portConstraint=eastwest;top=0;left=0;right=0;bottom=0;" parent="y_2ADnTQ-EF7975qrf9e-113" vertex="1">
          <mxGeometry y="60" width="140" height="30" as="geometry" />
        </mxCell>
        <mxCell id="y_2ADnTQ-EF7975qrf9e-118" value="" style="shape=partialRectangle;connectable=0;fillColor=none;top=0;left=0;bottom=0;right=0;editable=1;overflow=hidden;" parent="y_2ADnTQ-EF7975qrf9e-117" vertex="1">
          <mxGeometry width="30" height="30" as="geometry">
            <mxRectangle width="30" height="30" as="alternateBounds" />
          </mxGeometry>
        </mxCell>
        <mxCell id="y_2ADnTQ-EF7975qrf9e-119" value="productID" style="shape=partialRectangle;connectable=0;fillColor=none;top=0;left=0;bottom=0;right=0;align=left;spacingLeft=6;overflow=hidden;" parent="y_2ADnTQ-EF7975qrf9e-117" vertex="1">
          <mxGeometry x="30" width="110" height="30" as="geometry">
            <mxRectangle width="110" height="30" as="alternateBounds" />
          </mxGeometry>
        </mxCell>
        <mxCell id="y_2ADnTQ-EF7975qrf9e-120" value="" style="shape=tableRow;horizontal=0;startSize=0;swimlaneHead=0;swimlaneBody=0;fillColor=none;collapsible=0;dropTarget=0;points=[[0,0.5],[1,0.5]];portConstraint=eastwest;top=0;left=0;right=0;bottom=0;" parent="y_2ADnTQ-EF7975qrf9e-113" vertex="1">
          <mxGeometry y="90" width="140" height="20" as="geometry" />
        </mxCell>
        <mxCell id="y_2ADnTQ-EF7975qrf9e-121" value="" style="shape=partialRectangle;connectable=0;fillColor=none;top=0;left=0;bottom=0;right=0;editable=1;overflow=hidden;" parent="y_2ADnTQ-EF7975qrf9e-120" vertex="1">
          <mxGeometry width="30" height="20" as="geometry">
            <mxRectangle width="30" height="20" as="alternateBounds" />
          </mxGeometry>
        </mxCell>
        <mxCell id="y_2ADnTQ-EF7975qrf9e-122" value="amount" style="shape=partialRectangle;connectable=0;fillColor=none;top=0;left=0;bottom=0;right=0;align=left;spacingLeft=6;overflow=hidden;" parent="y_2ADnTQ-EF7975qrf9e-120" vertex="1">
          <mxGeometry x="30" width="110" height="20" as="geometry">
            <mxRectangle width="110" height="20" as="alternateBounds" />
          </mxGeometry>
        </mxCell>
        <mxCell id="a_-TRtNWTrbhx3Ms-q2w-42" value="" style="shape=tableRow;horizontal=0;startSize=0;swimlaneHead=0;swimlaneBody=0;fillColor=none;collapsible=0;dropTarget=0;points=[[0,0.5],[1,0.5]];portConstraint=eastwest;top=0;left=0;right=0;bottom=0;" vertex="1" parent="y_2ADnTQ-EF7975qrf9e-113">
          <mxGeometry y="110" width="140" height="20" as="geometry" />
        </mxCell>
        <mxCell id="a_-TRtNWTrbhx3Ms-q2w-43" value="" style="shape=partialRectangle;connectable=0;fillColor=none;top=0;left=0;bottom=0;right=0;editable=1;overflow=hidden;" vertex="1" parent="a_-TRtNWTrbhx3Ms-q2w-42">
          <mxGeometry width="30" height="20" as="geometry">
            <mxRectangle width="30" height="20" as="alternateBounds" />
          </mxGeometry>
        </mxCell>
        <mxCell id="a_-TRtNWTrbhx3Ms-q2w-44" value="UserId" style="shape=partialRectangle;connectable=0;fillColor=none;top=0;left=0;bottom=0;right=0;align=left;spacingLeft=6;overflow=hidden;" vertex="1" parent="a_-TRtNWTrbhx3Ms-q2w-42">
          <mxGeometry x="30" width="110" height="20" as="geometry">
            <mxRectangle width="110" height="20" as="alternateBounds" />
          </mxGeometry>
        </mxCell>
        <mxCell id="y_2ADnTQ-EF7975qrf9e-123" value="User" style="shape=table;startSize=30;container=1;collapsible=1;childLayout=tableLayout;fixedRows=1;rowLines=0;fontStyle=1;align=center;resizeLast=1;" parent="1" vertex="1">
          <mxGeometry x="1232" y="312" width="140" height="140" as="geometry" />
        </mxCell>
        <mxCell id="y_2ADnTQ-EF7975qrf9e-124" value="" style="shape=tableRow;horizontal=0;startSize=0;swimlaneHead=0;swimlaneBody=0;fillColor=none;collapsible=0;dropTarget=0;points=[[0,0.5],[1,0.5]];portConstraint=eastwest;top=0;left=0;right=0;bottom=1;" parent="y_2ADnTQ-EF7975qrf9e-123" vertex="1">
          <mxGeometry y="30" width="140" height="30" as="geometry" />
        </mxCell>
        <mxCell id="y_2ADnTQ-EF7975qrf9e-125" value="PK" style="shape=partialRectangle;connectable=0;fillColor=none;top=0;left=0;bottom=0;right=0;fontStyle=1;overflow=hidden;" parent="y_2ADnTQ-EF7975qrf9e-124" vertex="1">
          <mxGeometry width="40" height="30" as="geometry">
            <mxRectangle width="40" height="30" as="alternateBounds" />
          </mxGeometry>
        </mxCell>
        <mxCell id="y_2ADnTQ-EF7975qrf9e-126" value="id" style="shape=partialRectangle;connectable=0;fillColor=none;top=0;left=0;bottom=0;right=0;align=left;spacingLeft=6;fontStyle=5;overflow=hidden;" parent="y_2ADnTQ-EF7975qrf9e-124" vertex="1">
          <mxGeometry x="40" width="100" height="30" as="geometry">
            <mxRectangle width="100" height="30" as="alternateBounds" />
          </mxGeometry>
        </mxCell>
        <mxCell id="y_2ADnTQ-EF7975qrf9e-127" value="" style="shape=tableRow;horizontal=0;startSize=0;swimlaneHead=0;swimlaneBody=0;fillColor=none;collapsible=0;dropTarget=0;points=[[0,0.5],[1,0.5]];portConstraint=eastwest;top=0;left=0;right=0;bottom=0;" parent="y_2ADnTQ-EF7975qrf9e-123" vertex="1">
          <mxGeometry y="60" width="140" height="30" as="geometry" />
        </mxCell>
        <mxCell id="y_2ADnTQ-EF7975qrf9e-128" value="" style="shape=partialRectangle;connectable=0;fillColor=none;top=0;left=0;bottom=0;right=0;editable=1;overflow=hidden;" parent="y_2ADnTQ-EF7975qrf9e-127" vertex="1">
          <mxGeometry width="40" height="30" as="geometry">
            <mxRectangle width="40" height="30" as="alternateBounds" />
          </mxGeometry>
        </mxCell>
        <mxCell id="y_2ADnTQ-EF7975qrf9e-129" value="phone" style="shape=partialRectangle;connectable=0;fillColor=none;top=0;left=0;bottom=0;right=0;align=left;spacingLeft=6;overflow=hidden;" parent="y_2ADnTQ-EF7975qrf9e-127" vertex="1">
          <mxGeometry x="40" width="100" height="30" as="geometry">
            <mxRectangle width="100" height="30" as="alternateBounds" />
          </mxGeometry>
        </mxCell>
        <mxCell id="y_2ADnTQ-EF7975qrf9e-130" value="" style="shape=tableRow;horizontal=0;startSize=0;swimlaneHead=0;swimlaneBody=0;fillColor=none;collapsible=0;dropTarget=0;points=[[0,0.5],[1,0.5]];portConstraint=eastwest;top=0;left=0;right=0;bottom=0;" parent="y_2ADnTQ-EF7975qrf9e-123" vertex="1">
          <mxGeometry y="90" width="140" height="30" as="geometry" />
        </mxCell>
        <mxCell id="y_2ADnTQ-EF7975qrf9e-131" value="" style="shape=partialRectangle;connectable=0;fillColor=none;top=0;left=0;bottom=0;right=0;editable=1;overflow=hidden;" parent="y_2ADnTQ-EF7975qrf9e-130" vertex="1">
          <mxGeometry width="40" height="30" as="geometry">
            <mxRectangle width="40" height="30" as="alternateBounds" />
          </mxGeometry>
        </mxCell>
        <mxCell id="y_2ADnTQ-EF7975qrf9e-132" value="name" style="shape=partialRectangle;connectable=0;fillColor=none;top=0;left=0;bottom=0;right=0;align=left;spacingLeft=6;overflow=hidden;" parent="y_2ADnTQ-EF7975qrf9e-130" vertex="1">
          <mxGeometry x="40" width="100" height="30" as="geometry">
            <mxRectangle width="100" height="30" as="alternateBounds" />
          </mxGeometry>
        </mxCell>
        <mxCell id="y_2ADnTQ-EF7975qrf9e-133" value="" style="shape=tableRow;horizontal=0;startSize=0;swimlaneHead=0;swimlaneBody=0;fillColor=none;collapsible=0;dropTarget=0;points=[[0,0.5],[1,0.5]];portConstraint=eastwest;top=0;left=0;right=0;bottom=0;" parent="y_2ADnTQ-EF7975qrf9e-123" vertex="1">
          <mxGeometry y="120" width="140" height="20" as="geometry" />
        </mxCell>
        <mxCell id="y_2ADnTQ-EF7975qrf9e-134" value="" style="shape=partialRectangle;connectable=0;fillColor=none;top=0;left=0;bottom=0;right=0;editable=1;overflow=hidden;" parent="y_2ADnTQ-EF7975qrf9e-133" vertex="1">
          <mxGeometry width="40" height="20" as="geometry">
            <mxRectangle width="40" height="20" as="alternateBounds" />
          </mxGeometry>
        </mxCell>
        <mxCell id="y_2ADnTQ-EF7975qrf9e-135" value="surname" style="shape=partialRectangle;connectable=0;fillColor=none;top=0;left=0;bottom=0;right=0;align=left;spacingLeft=6;overflow=hidden;" parent="y_2ADnTQ-EF7975qrf9e-133" vertex="1">
          <mxGeometry x="40" width="100" height="20" as="geometry">
            <mxRectangle width="100" height="20" as="alternateBounds" />
          </mxGeometry>
        </mxCell>
        <mxCell id="y_2ADnTQ-EF7975qrf9e-139" value="Personal" style="shape=table;startSize=30;container=1;collapsible=1;childLayout=tableLayout;fixedRows=1;rowLines=0;fontStyle=1;align=center;resizeLast=1;" parent="1" vertex="1">
          <mxGeometry x="1452" y="307" width="140" height="180" as="geometry" />
        </mxCell>
        <mxCell id="y_2ADnTQ-EF7975qrf9e-140" value="" style="shape=tableRow;horizontal=0;startSize=0;swimlaneHead=0;swimlaneBody=0;fillColor=none;collapsible=0;dropTarget=0;points=[[0,0.5],[1,0.5]];portConstraint=eastwest;top=0;left=0;right=0;bottom=1;" parent="y_2ADnTQ-EF7975qrf9e-139" vertex="1">
          <mxGeometry y="30" width="140" height="30" as="geometry" />
        </mxCell>
        <mxCell id="y_2ADnTQ-EF7975qrf9e-141" value="PK" style="shape=partialRectangle;connectable=0;fillColor=none;top=0;left=0;bottom=0;right=0;fontStyle=1;overflow=hidden;" parent="y_2ADnTQ-EF7975qrf9e-140" vertex="1">
          <mxGeometry width="30" height="30" as="geometry">
            <mxRectangle width="30" height="30" as="alternateBounds" />
          </mxGeometry>
        </mxCell>
        <mxCell id="y_2ADnTQ-EF7975qrf9e-142" value="id" style="shape=partialRectangle;connectable=0;fillColor=none;top=0;left=0;bottom=0;right=0;align=left;spacingLeft=6;fontStyle=5;overflow=hidden;" parent="y_2ADnTQ-EF7975qrf9e-140" vertex="1">
          <mxGeometry x="30" width="110" height="30" as="geometry">
            <mxRectangle width="110" height="30" as="alternateBounds" />
          </mxGeometry>
        </mxCell>
        <mxCell id="y_2ADnTQ-EF7975qrf9e-143" value="" style="shape=tableRow;horizontal=0;startSize=0;swimlaneHead=0;swimlaneBody=0;fillColor=none;collapsible=0;dropTarget=0;points=[[0,0.5],[1,0.5]];portConstraint=eastwest;top=0;left=0;right=0;bottom=0;" parent="y_2ADnTQ-EF7975qrf9e-139" vertex="1">
          <mxGeometry y="60" width="140" height="30" as="geometry" />
        </mxCell>
        <mxCell id="y_2ADnTQ-EF7975qrf9e-144" value="" style="shape=partialRectangle;connectable=0;fillColor=none;top=0;left=0;bottom=0;right=0;editable=1;overflow=hidden;" parent="y_2ADnTQ-EF7975qrf9e-143" vertex="1">
          <mxGeometry width="30" height="30" as="geometry">
            <mxRectangle width="30" height="30" as="alternateBounds" />
          </mxGeometry>
        </mxCell>
        <mxCell id="y_2ADnTQ-EF7975qrf9e-145" value="phone" style="shape=partialRectangle;connectable=0;fillColor=none;top=0;left=0;bottom=0;right=0;align=left;spacingLeft=6;overflow=hidden;" parent="y_2ADnTQ-EF7975qrf9e-143" vertex="1">
          <mxGeometry x="30" width="110" height="30" as="geometry">
            <mxRectangle width="110" height="30" as="alternateBounds" />
          </mxGeometry>
        </mxCell>
        <mxCell id="y_2ADnTQ-EF7975qrf9e-146" value="" style="shape=tableRow;horizontal=0;startSize=0;swimlaneHead=0;swimlaneBody=0;fillColor=none;collapsible=0;dropTarget=0;points=[[0,0.5],[1,0.5]];portConstraint=eastwest;top=0;left=0;right=0;bottom=0;" parent="y_2ADnTQ-EF7975qrf9e-139" vertex="1">
          <mxGeometry y="90" width="140" height="30" as="geometry" />
        </mxCell>
        <mxCell id="y_2ADnTQ-EF7975qrf9e-147" value="" style="shape=partialRectangle;connectable=0;fillColor=none;top=0;left=0;bottom=0;right=0;editable=1;overflow=hidden;" parent="y_2ADnTQ-EF7975qrf9e-146" vertex="1">
          <mxGeometry width="30" height="30" as="geometry">
            <mxRectangle width="30" height="30" as="alternateBounds" />
          </mxGeometry>
        </mxCell>
        <mxCell id="y_2ADnTQ-EF7975qrf9e-148" value="name" style="shape=partialRectangle;connectable=0;fillColor=none;top=0;left=0;bottom=0;right=0;align=left;spacingLeft=6;overflow=hidden;" parent="y_2ADnTQ-EF7975qrf9e-146" vertex="1">
          <mxGeometry x="30" width="110" height="30" as="geometry">
            <mxRectangle width="110" height="30" as="alternateBounds" />
          </mxGeometry>
        </mxCell>
        <mxCell id="y_2ADnTQ-EF7975qrf9e-149" value="" style="shape=tableRow;horizontal=0;startSize=0;swimlaneHead=0;swimlaneBody=0;fillColor=none;collapsible=0;dropTarget=0;points=[[0,0.5],[1,0.5]];portConstraint=eastwest;top=0;left=0;right=0;bottom=0;" parent="y_2ADnTQ-EF7975qrf9e-139" vertex="1">
          <mxGeometry y="120" width="140" height="20" as="geometry" />
        </mxCell>
        <mxCell id="y_2ADnTQ-EF7975qrf9e-150" value="" style="shape=partialRectangle;connectable=0;fillColor=none;top=0;left=0;bottom=0;right=0;editable=1;overflow=hidden;" parent="y_2ADnTQ-EF7975qrf9e-149" vertex="1">
          <mxGeometry width="30" height="20" as="geometry">
            <mxRectangle width="30" height="20" as="alternateBounds" />
          </mxGeometry>
        </mxCell>
        <mxCell id="y_2ADnTQ-EF7975qrf9e-151" value="surname" style="shape=partialRectangle;connectable=0;fillColor=none;top=0;left=0;bottom=0;right=0;align=left;spacingLeft=6;overflow=hidden;" parent="y_2ADnTQ-EF7975qrf9e-149" vertex="1">
          <mxGeometry x="30" width="110" height="20" as="geometry">
            <mxRectangle width="110" height="20" as="alternateBounds" />
          </mxGeometry>
        </mxCell>
        <mxCell id="y_2ADnTQ-EF7975qrf9e-152" value="" style="shape=tableRow;horizontal=0;startSize=0;swimlaneHead=0;swimlaneBody=0;fillColor=none;collapsible=0;dropTarget=0;points=[[0,0.5],[1,0.5]];portConstraint=eastwest;top=0;left=0;right=0;bottom=0;" parent="y_2ADnTQ-EF7975qrf9e-139" vertex="1">
          <mxGeometry y="140" width="140" height="30" as="geometry" />
        </mxCell>
        <mxCell id="y_2ADnTQ-EF7975qrf9e-153" value="" style="shape=partialRectangle;connectable=0;fillColor=none;top=0;left=0;bottom=0;right=0;editable=1;overflow=hidden;" parent="y_2ADnTQ-EF7975qrf9e-152" vertex="1">
          <mxGeometry width="30" height="30" as="geometry">
            <mxRectangle width="30" height="30" as="alternateBounds" />
          </mxGeometry>
        </mxCell>
        <mxCell id="y_2ADnTQ-EF7975qrf9e-154" value="Post" style="shape=partialRectangle;connectable=0;fillColor=none;top=0;left=0;bottom=0;right=0;align=left;spacingLeft=6;overflow=hidden;" parent="y_2ADnTQ-EF7975qrf9e-152" vertex="1">
          <mxGeometry x="30" width="110" height="30" as="geometry">
            <mxRectangle width="110" height="30" as="alternateBounds" />
          </mxGeometry>
        </mxCell>
        <mxCell id="y_2ADnTQ-EF7975qrf9e-155" style="edgeStyle=orthogonalEdgeStyle;rounded=0;orthogonalLoop=1;jettySize=auto;html=1;" parent="1" target="a_-TRtNWTrbhx3Ms-q2w-42" edge="1">
          <mxGeometry relative="1" as="geometry">
            <mxPoint x="1232" y="466" as="sourcePoint" />
            <Array as="points">
              <mxPoint x="1232" y="360" />
              <mxPoint x="1212" y="360" />
              <mxPoint x="1212" y="648" />
            </Array>
          </mxGeometry>
        </mxCell>
        <mxCell id="y_2ADnTQ-EF7975qrf9e-156" style="edgeStyle=orthogonalEdgeStyle;rounded=0;orthogonalLoop=1;jettySize=auto;html=1;startArrow=ERmany;startFill=0;endArrow=none;endFill=0;" parent="1" source="y_2ADnTQ-EF7975qrf9e-117" target="y_2ADnTQ-EF7975qrf9e-101" edge="1">
          <mxGeometry relative="1" as="geometry" />
        </mxCell>
        <mxCell id="y_2ADnTQ-EF7975qrf9e-157" value="cheque" style="shape=table;startSize=30;container=1;collapsible=1;childLayout=tableLayout;fixedRows=1;rowLines=0;fontStyle=1;align=center;resizeLast=1;" parent="1" vertex="1">
          <mxGeometry x="1232" y="144" width="140" height="120" as="geometry" />
        </mxCell>
        <mxCell id="y_2ADnTQ-EF7975qrf9e-158" value="" style="shape=tableRow;horizontal=0;startSize=0;swimlaneHead=0;swimlaneBody=0;fillColor=none;collapsible=0;dropTarget=0;points=[[0,0.5],[1,0.5]];portConstraint=eastwest;top=0;left=0;right=0;bottom=1;" parent="y_2ADnTQ-EF7975qrf9e-157" vertex="1">
          <mxGeometry y="30" width="140" height="30" as="geometry" />
        </mxCell>
        <mxCell id="y_2ADnTQ-EF7975qrf9e-159" value="PK" style="shape=partialRectangle;connectable=0;fillColor=none;top=0;left=0;bottom=0;right=0;fontStyle=1;overflow=hidden;" parent="y_2ADnTQ-EF7975qrf9e-158" vertex="1">
          <mxGeometry width="30" height="30" as="geometry">
            <mxRectangle width="30" height="30" as="alternateBounds" />
          </mxGeometry>
        </mxCell>
        <mxCell id="y_2ADnTQ-EF7975qrf9e-160" value="id" style="shape=partialRectangle;connectable=0;fillColor=none;top=0;left=0;bottom=0;right=0;align=left;spacingLeft=6;fontStyle=5;overflow=hidden;" parent="y_2ADnTQ-EF7975qrf9e-158" vertex="1">
          <mxGeometry x="30" width="110" height="30" as="geometry">
            <mxRectangle width="110" height="30" as="alternateBounds" />
          </mxGeometry>
        </mxCell>
        <mxCell id="y_2ADnTQ-EF7975qrf9e-161" value="" style="shape=tableRow;horizontal=0;startSize=0;swimlaneHead=0;swimlaneBody=0;fillColor=none;collapsible=0;dropTarget=0;points=[[0,0.5],[1,0.5]];portConstraint=eastwest;top=0;left=0;right=0;bottom=0;" parent="y_2ADnTQ-EF7975qrf9e-157" vertex="1">
          <mxGeometry y="60" width="140" height="30" as="geometry" />
        </mxCell>
        <mxCell id="y_2ADnTQ-EF7975qrf9e-162" value="" style="shape=partialRectangle;connectable=0;fillColor=none;top=0;left=0;bottom=0;right=0;editable=1;overflow=hidden;" parent="y_2ADnTQ-EF7975qrf9e-161" vertex="1">
          <mxGeometry width="30" height="30" as="geometry">
            <mxRectangle width="30" height="30" as="alternateBounds" />
          </mxGeometry>
        </mxCell>
        <mxCell id="y_2ADnTQ-EF7975qrf9e-163" value="UserID" style="shape=partialRectangle;connectable=0;fillColor=none;top=0;left=0;bottom=0;right=0;align=left;spacingLeft=6;overflow=hidden;" parent="y_2ADnTQ-EF7975qrf9e-161" vertex="1">
          <mxGeometry x="30" width="110" height="30" as="geometry">
            <mxRectangle width="110" height="30" as="alternateBounds" />
          </mxGeometry>
        </mxCell>
        <mxCell id="y_2ADnTQ-EF7975qrf9e-164" value="" style="shape=tableRow;horizontal=0;startSize=0;swimlaneHead=0;swimlaneBody=0;fillColor=none;collapsible=0;dropTarget=0;points=[[0,0.5],[1,0.5]];portConstraint=eastwest;top=0;left=0;right=0;bottom=0;" parent="y_2ADnTQ-EF7975qrf9e-157" vertex="1">
          <mxGeometry y="90" width="140" height="30" as="geometry" />
        </mxCell>
        <mxCell id="y_2ADnTQ-EF7975qrf9e-165" value="" style="shape=partialRectangle;connectable=0;fillColor=none;top=0;left=0;bottom=0;right=0;editable=1;overflow=hidden;" parent="y_2ADnTQ-EF7975qrf9e-164" vertex="1">
          <mxGeometry width="30" height="30" as="geometry">
            <mxRectangle width="30" height="30" as="alternateBounds" />
          </mxGeometry>
        </mxCell>
        <mxCell id="y_2ADnTQ-EF7975qrf9e-166" value="CardID" style="shape=partialRectangle;connectable=0;fillColor=none;top=0;left=0;bottom=0;right=0;align=left;spacingLeft=6;overflow=hidden;" parent="y_2ADnTQ-EF7975qrf9e-164" vertex="1">
          <mxGeometry x="30" width="110" height="30" as="geometry">
            <mxRectangle width="110" height="30" as="alternateBounds" />
          </mxGeometry>
        </mxCell>
        <mxCell id="y_2ADnTQ-EF7975qrf9e-167" value="" style="endArrow=none;html=1;rounded=0;exitX=0;exitY=0.5;exitDx=0;exitDy=0;entryX=0;entryY=0.5;entryDx=0;entryDy=0;startArrow=ERmany;startFill=0;endFill=0;" parent="1" source="y_2ADnTQ-EF7975qrf9e-124" target="y_2ADnTQ-EF7975qrf9e-161" edge="1">
          <mxGeometry width="50" height="50" relative="1" as="geometry">
            <mxPoint x="1224" y="348" as="sourcePoint" />
            <mxPoint x="1200" y="204" as="targetPoint" />
            <Array as="points">
              <mxPoint x="1188" y="357" />
              <mxPoint x="1188" y="288" />
              <mxPoint x="1188" y="219" />
            </Array>
          </mxGeometry>
        </mxCell>
        <mxCell id="y_2ADnTQ-EF7975qrf9e-168" value="" style="endArrow=classic;html=1;rounded=0;exitX=1.021;exitY=0.3;exitDx=0;exitDy=0;entryX=1;entryY=0.5;entryDx=0;entryDy=0;exitPerimeter=0;" parent="1" source="y_2ADnTQ-EF7975qrf9e-114" target="y_2ADnTQ-EF7975qrf9e-164" edge="1">
          <mxGeometry width="50" height="50" relative="1" as="geometry">
            <mxPoint x="1372" y="466" as="sourcePoint" />
            <mxPoint x="1422" y="357" as="targetPoint" />
            <Array as="points">
              <mxPoint x="1416" y="561" />
              <mxPoint x="1416" y="360" />
              <mxPoint x="1416" y="249" />
            </Array>
          </mxGeometry>
        </mxCell>
        <mxCell id="y_2ADnTQ-EF7975qrf9e-169" value="Post" style="shape=table;startSize=30;container=1;collapsible=1;childLayout=tableLayout;fixedRows=1;rowLines=0;fontStyle=1;align=center;resizeLast=1;" parent="1" vertex="1">
          <mxGeometry x="1680" y="348" width="140" height="120" as="geometry" />
        </mxCell>
        <mxCell id="y_2ADnTQ-EF7975qrf9e-170" value="" style="shape=tableRow;horizontal=0;startSize=0;swimlaneHead=0;swimlaneBody=0;fillColor=none;collapsible=0;dropTarget=0;points=[[0,0.5],[1,0.5]];portConstraint=eastwest;top=0;left=0;right=0;bottom=1;" parent="y_2ADnTQ-EF7975qrf9e-169" vertex="1">
          <mxGeometry y="30" width="140" height="30" as="geometry" />
        </mxCell>
        <mxCell id="y_2ADnTQ-EF7975qrf9e-171" value="PK" style="shape=partialRectangle;connectable=0;fillColor=none;top=0;left=0;bottom=0;right=0;fontStyle=1;overflow=hidden;" parent="y_2ADnTQ-EF7975qrf9e-170" vertex="1">
          <mxGeometry width="30" height="30" as="geometry">
            <mxRectangle width="30" height="30" as="alternateBounds" />
          </mxGeometry>
        </mxCell>
        <mxCell id="y_2ADnTQ-EF7975qrf9e-172" value="id" style="shape=partialRectangle;connectable=0;fillColor=none;top=0;left=0;bottom=0;right=0;align=left;spacingLeft=6;fontStyle=5;overflow=hidden;" parent="y_2ADnTQ-EF7975qrf9e-170" vertex="1">
          <mxGeometry x="30" width="110" height="30" as="geometry">
            <mxRectangle width="110" height="30" as="alternateBounds" />
          </mxGeometry>
        </mxCell>
        <mxCell id="y_2ADnTQ-EF7975qrf9e-173" value="" style="shape=tableRow;horizontal=0;startSize=0;swimlaneHead=0;swimlaneBody=0;fillColor=none;collapsible=0;dropTarget=0;points=[[0,0.5],[1,0.5]];portConstraint=eastwest;top=0;left=0;right=0;bottom=0;" parent="y_2ADnTQ-EF7975qrf9e-169" vertex="1">
          <mxGeometry y="60" width="140" height="30" as="geometry" />
        </mxCell>
        <mxCell id="y_2ADnTQ-EF7975qrf9e-174" value="" style="shape=partialRectangle;connectable=0;fillColor=none;top=0;left=0;bottom=0;right=0;editable=1;overflow=hidden;" parent="y_2ADnTQ-EF7975qrf9e-173" vertex="1">
          <mxGeometry width="30" height="30" as="geometry">
            <mxRectangle width="30" height="30" as="alternateBounds" />
          </mxGeometry>
        </mxCell>
        <mxCell id="y_2ADnTQ-EF7975qrf9e-175" value="PostID" style="shape=partialRectangle;connectable=0;fillColor=none;top=0;left=0;bottom=0;right=0;align=left;spacingLeft=6;overflow=hidden;" parent="y_2ADnTQ-EF7975qrf9e-173" vertex="1">
          <mxGeometry x="30" width="110" height="30" as="geometry">
            <mxRectangle width="110" height="30" as="alternateBounds" />
          </mxGeometry>
        </mxCell>
        <mxCell id="y_2ADnTQ-EF7975qrf9e-176" value="" style="shape=tableRow;horizontal=0;startSize=0;swimlaneHead=0;swimlaneBody=0;fillColor=none;collapsible=0;dropTarget=0;points=[[0,0.5],[1,0.5]];portConstraint=eastwest;top=0;left=0;right=0;bottom=0;" parent="y_2ADnTQ-EF7975qrf9e-169" vertex="1">
          <mxGeometry y="90" width="140" height="30" as="geometry" />
        </mxCell>
        <mxCell id="y_2ADnTQ-EF7975qrf9e-177" value="" style="shape=partialRectangle;connectable=0;fillColor=none;top=0;left=0;bottom=0;right=0;editable=1;overflow=hidden;" parent="y_2ADnTQ-EF7975qrf9e-176" vertex="1">
          <mxGeometry width="30" height="30" as="geometry">
            <mxRectangle width="30" height="30" as="alternateBounds" />
          </mxGeometry>
        </mxCell>
        <mxCell id="y_2ADnTQ-EF7975qrf9e-178" value="Post_Name" style="shape=partialRectangle;connectable=0;fillColor=none;top=0;left=0;bottom=0;right=0;align=left;spacingLeft=6;overflow=hidden;" parent="y_2ADnTQ-EF7975qrf9e-176" vertex="1">
          <mxGeometry x="30" width="110" height="30" as="geometry">
            <mxRectangle width="110" height="30" as="alternateBounds" />
          </mxGeometry>
        </mxCell>
        <mxCell id="y_2ADnTQ-EF7975qrf9e-180" value="Shop" style="shape=table;startSize=30;container=1;collapsible=1;childLayout=tableLayout;fixedRows=1;rowLines=0;fontStyle=1;align=center;resizeLast=1;" parent="1" vertex="1">
          <mxGeometry x="1680" y="516" width="132" height="160" as="geometry" />
        </mxCell>
        <mxCell id="y_2ADnTQ-EF7975qrf9e-181" value="" style="shape=tableRow;horizontal=0;startSize=0;swimlaneHead=0;swimlaneBody=0;fillColor=none;collapsible=0;dropTarget=0;points=[[0,0.5],[1,0.5]];portConstraint=eastwest;top=0;left=0;right=0;bottom=1;" parent="y_2ADnTQ-EF7975qrf9e-180" vertex="1">
          <mxGeometry y="30" width="132" height="30" as="geometry" />
        </mxCell>
        <mxCell id="y_2ADnTQ-EF7975qrf9e-182" value="PK" style="shape=partialRectangle;connectable=0;fillColor=none;top=0;left=0;bottom=0;right=0;fontStyle=1;overflow=hidden;" parent="y_2ADnTQ-EF7975qrf9e-181" vertex="1">
          <mxGeometry width="30" height="30" as="geometry">
            <mxRectangle width="30" height="30" as="alternateBounds" />
          </mxGeometry>
        </mxCell>
        <mxCell id="y_2ADnTQ-EF7975qrf9e-183" value="id" style="shape=partialRectangle;connectable=0;fillColor=none;top=0;left=0;bottom=0;right=0;align=left;spacingLeft=6;fontStyle=5;overflow=hidden;" parent="y_2ADnTQ-EF7975qrf9e-181" vertex="1">
          <mxGeometry x="30" width="102" height="30" as="geometry">
            <mxRectangle width="102" height="30" as="alternateBounds" />
          </mxGeometry>
        </mxCell>
        <mxCell id="y_2ADnTQ-EF7975qrf9e-184" value="" style="shape=tableRow;horizontal=0;startSize=0;swimlaneHead=0;swimlaneBody=0;fillColor=none;collapsible=0;dropTarget=0;points=[[0,0.5],[1,0.5]];portConstraint=eastwest;top=0;left=0;right=0;bottom=0;" parent="y_2ADnTQ-EF7975qrf9e-180" vertex="1">
          <mxGeometry y="60" width="132" height="30" as="geometry" />
        </mxCell>
        <mxCell id="y_2ADnTQ-EF7975qrf9e-185" value="" style="shape=partialRectangle;connectable=0;fillColor=none;top=0;left=0;bottom=0;right=0;editable=1;overflow=hidden;" parent="y_2ADnTQ-EF7975qrf9e-184" vertex="1">
          <mxGeometry width="30" height="30" as="geometry">
            <mxRectangle width="30" height="30" as="alternateBounds" />
          </mxGeometry>
        </mxCell>
        <mxCell id="y_2ADnTQ-EF7975qrf9e-186" value="ProductID" style="shape=partialRectangle;connectable=0;fillColor=none;top=0;left=0;bottom=0;right=0;align=left;spacingLeft=6;overflow=hidden;" parent="y_2ADnTQ-EF7975qrf9e-184" vertex="1">
          <mxGeometry x="30" width="102" height="30" as="geometry">
            <mxRectangle width="102" height="30" as="alternateBounds" />
          </mxGeometry>
        </mxCell>
        <mxCell id="y_2ADnTQ-EF7975qrf9e-187" value="" style="shape=tableRow;horizontal=0;startSize=0;swimlaneHead=0;swimlaneBody=0;fillColor=none;collapsible=0;dropTarget=0;points=[[0,0.5],[1,0.5]];portConstraint=eastwest;top=0;left=0;right=0;bottom=0;" parent="y_2ADnTQ-EF7975qrf9e-180" vertex="1">
          <mxGeometry y="90" width="132" height="30" as="geometry" />
        </mxCell>
        <mxCell id="y_2ADnTQ-EF7975qrf9e-188" value="" style="shape=partialRectangle;connectable=0;fillColor=none;top=0;left=0;bottom=0;right=0;editable=1;overflow=hidden;" parent="y_2ADnTQ-EF7975qrf9e-187" vertex="1">
          <mxGeometry width="30" height="30" as="geometry">
            <mxRectangle width="30" height="30" as="alternateBounds" />
          </mxGeometry>
        </mxCell>
        <mxCell id="y_2ADnTQ-EF7975qrf9e-189" value="PersonalID" style="shape=partialRectangle;connectable=0;fillColor=none;top=0;left=0;bottom=0;right=0;align=left;spacingLeft=6;overflow=hidden;" parent="y_2ADnTQ-EF7975qrf9e-187" vertex="1">
          <mxGeometry x="30" width="102" height="30" as="geometry">
            <mxRectangle width="102" height="30" as="alternateBounds" />
          </mxGeometry>
        </mxCell>
        <mxCell id="y_2ADnTQ-EF7975qrf9e-190" value="" style="shape=tableRow;horizontal=0;startSize=0;swimlaneHead=0;swimlaneBody=0;fillColor=none;collapsible=0;dropTarget=0;points=[[0,0.5],[1,0.5]];portConstraint=eastwest;top=0;left=0;right=0;bottom=0;" parent="y_2ADnTQ-EF7975qrf9e-180" vertex="1">
          <mxGeometry y="120" width="132" height="30" as="geometry" />
        </mxCell>
        <mxCell id="y_2ADnTQ-EF7975qrf9e-191" value="" style="shape=partialRectangle;connectable=0;fillColor=none;top=0;left=0;bottom=0;right=0;editable=1;overflow=hidden;" parent="y_2ADnTQ-EF7975qrf9e-190" vertex="1">
          <mxGeometry width="30" height="30" as="geometry">
            <mxRectangle width="30" height="30" as="alternateBounds" />
          </mxGeometry>
        </mxCell>
        <mxCell id="y_2ADnTQ-EF7975qrf9e-192" value="Location" style="shape=partialRectangle;connectable=0;fillColor=none;top=0;left=0;bottom=0;right=0;align=left;spacingLeft=6;overflow=hidden;" parent="y_2ADnTQ-EF7975qrf9e-190" vertex="1">
          <mxGeometry x="30" width="102" height="30" as="geometry">
            <mxRectangle width="102" height="30" as="alternateBounds" />
          </mxGeometry>
        </mxCell>
        <mxCell id="y_2ADnTQ-EF7975qrf9e-193" value="Location" style="shape=table;startSize=30;container=1;collapsible=1;childLayout=tableLayout;fixedRows=1;rowLines=0;fontStyle=1;align=center;resizeLast=1;" parent="1" vertex="1">
          <mxGeometry x="1884" y="502" width="132" height="160" as="geometry" />
        </mxCell>
        <mxCell id="y_2ADnTQ-EF7975qrf9e-194" value="" style="shape=tableRow;horizontal=0;startSize=0;swimlaneHead=0;swimlaneBody=0;fillColor=none;collapsible=0;dropTarget=0;points=[[0,0.5],[1,0.5]];portConstraint=eastwest;top=0;left=0;right=0;bottom=1;" parent="y_2ADnTQ-EF7975qrf9e-193" vertex="1">
          <mxGeometry y="30" width="132" height="30" as="geometry" />
        </mxCell>
        <mxCell id="y_2ADnTQ-EF7975qrf9e-195" value="PK" style="shape=partialRectangle;connectable=0;fillColor=none;top=0;left=0;bottom=0;right=0;fontStyle=1;overflow=hidden;" parent="y_2ADnTQ-EF7975qrf9e-194" vertex="1">
          <mxGeometry width="30" height="30" as="geometry">
            <mxRectangle width="30" height="30" as="alternateBounds" />
          </mxGeometry>
        </mxCell>
        <mxCell id="y_2ADnTQ-EF7975qrf9e-196" value="id" style="shape=partialRectangle;connectable=0;fillColor=none;top=0;left=0;bottom=0;right=0;align=left;spacingLeft=6;fontStyle=5;overflow=hidden;" parent="y_2ADnTQ-EF7975qrf9e-194" vertex="1">
          <mxGeometry x="30" width="102" height="30" as="geometry">
            <mxRectangle width="102" height="30" as="alternateBounds" />
          </mxGeometry>
        </mxCell>
        <mxCell id="y_2ADnTQ-EF7975qrf9e-197" value="" style="shape=tableRow;horizontal=0;startSize=0;swimlaneHead=0;swimlaneBody=0;fillColor=none;collapsible=0;dropTarget=0;points=[[0,0.5],[1,0.5]];portConstraint=eastwest;top=0;left=0;right=0;bottom=0;" parent="y_2ADnTQ-EF7975qrf9e-193" vertex="1">
          <mxGeometry y="60" width="132" height="30" as="geometry" />
        </mxCell>
        <mxCell id="y_2ADnTQ-EF7975qrf9e-198" value="" style="shape=partialRectangle;connectable=0;fillColor=none;top=0;left=0;bottom=0;right=0;editable=1;overflow=hidden;" parent="y_2ADnTQ-EF7975qrf9e-197" vertex="1">
          <mxGeometry width="30" height="30" as="geometry">
            <mxRectangle width="30" height="30" as="alternateBounds" />
          </mxGeometry>
        </mxCell>
        <mxCell id="y_2ADnTQ-EF7975qrf9e-199" value="Country" style="shape=partialRectangle;connectable=0;fillColor=none;top=0;left=0;bottom=0;right=0;align=left;spacingLeft=6;overflow=hidden;" parent="y_2ADnTQ-EF7975qrf9e-197" vertex="1">
          <mxGeometry x="30" width="102" height="30" as="geometry">
            <mxRectangle width="102" height="30" as="alternateBounds" />
          </mxGeometry>
        </mxCell>
        <mxCell id="y_2ADnTQ-EF7975qrf9e-200" value="" style="shape=tableRow;horizontal=0;startSize=0;swimlaneHead=0;swimlaneBody=0;fillColor=none;collapsible=0;dropTarget=0;points=[[0,0.5],[1,0.5]];portConstraint=eastwest;top=0;left=0;right=0;bottom=0;" parent="y_2ADnTQ-EF7975qrf9e-193" vertex="1">
          <mxGeometry y="90" width="132" height="30" as="geometry" />
        </mxCell>
        <mxCell id="y_2ADnTQ-EF7975qrf9e-201" value="" style="shape=partialRectangle;connectable=0;fillColor=none;top=0;left=0;bottom=0;right=0;editable=1;overflow=hidden;" parent="y_2ADnTQ-EF7975qrf9e-200" vertex="1">
          <mxGeometry width="30" height="30" as="geometry">
            <mxRectangle width="30" height="30" as="alternateBounds" />
          </mxGeometry>
        </mxCell>
        <mxCell id="y_2ADnTQ-EF7975qrf9e-202" value="City" style="shape=partialRectangle;connectable=0;fillColor=none;top=0;left=0;bottom=0;right=0;align=left;spacingLeft=6;overflow=hidden;" parent="y_2ADnTQ-EF7975qrf9e-200" vertex="1">
          <mxGeometry x="30" width="102" height="30" as="geometry">
            <mxRectangle width="102" height="30" as="alternateBounds" />
          </mxGeometry>
        </mxCell>
        <mxCell id="y_2ADnTQ-EF7975qrf9e-203" value="" style="shape=tableRow;horizontal=0;startSize=0;swimlaneHead=0;swimlaneBody=0;fillColor=none;collapsible=0;dropTarget=0;points=[[0,0.5],[1,0.5]];portConstraint=eastwest;top=0;left=0;right=0;bottom=0;" parent="y_2ADnTQ-EF7975qrf9e-193" vertex="1">
          <mxGeometry y="120" width="132" height="30" as="geometry" />
        </mxCell>
        <mxCell id="y_2ADnTQ-EF7975qrf9e-204" value="" style="shape=partialRectangle;connectable=0;fillColor=none;top=0;left=0;bottom=0;right=0;editable=1;overflow=hidden;" parent="y_2ADnTQ-EF7975qrf9e-203" vertex="1">
          <mxGeometry width="30" height="30" as="geometry">
            <mxRectangle width="30" height="30" as="alternateBounds" />
          </mxGeometry>
        </mxCell>
        <mxCell id="y_2ADnTQ-EF7975qrf9e-205" value="Address" style="shape=partialRectangle;connectable=0;fillColor=none;top=0;left=0;bottom=0;right=0;align=left;spacingLeft=6;overflow=hidden;" parent="y_2ADnTQ-EF7975qrf9e-203" vertex="1">
          <mxGeometry x="30" width="102" height="30" as="geometry">
            <mxRectangle width="102" height="30" as="alternateBounds" />
          </mxGeometry>
        </mxCell>
        <mxCell id="y_2ADnTQ-EF7975qrf9e-206" value="" style="endArrow=classic;html=1;rounded=0;exitX=1;exitY=0.5;exitDx=0;exitDy=0;entryX=0;entryY=0.5;entryDx=0;entryDy=0;" parent="1" source="y_2ADnTQ-EF7975qrf9e-190" target="y_2ADnTQ-EF7975qrf9e-194" edge="1">
          <mxGeometry width="50" height="50" relative="1" as="geometry">
            <mxPoint x="1774" y="746" as="sourcePoint" />
            <mxPoint x="1824" y="696" as="targetPoint" />
            <Array as="points">
              <mxPoint x="1836" y="651" />
              <mxPoint x="1836" y="547" />
            </Array>
          </mxGeometry>
        </mxCell>
        <mxCell id="y_2ADnTQ-EF7975qrf9e-207" value="" style="endArrow=none;html=1;rounded=0;startArrow=ERmany;startFill=0;endFill=0;entryX=0;entryY=0.5;entryDx=0;entryDy=0;exitX=1.008;exitY=0.094;exitDx=0;exitDy=0;exitPerimeter=0;" parent="1" source="y_2ADnTQ-EF7975qrf9e-100" target="y_2ADnTQ-EF7975qrf9e-184" edge="1">
          <mxGeometry width="50" height="50" relative="1" as="geometry">
            <mxPoint x="1582" y="590" as="sourcePoint" />
            <mxPoint x="1572" y="564" as="targetPoint" />
            <Array as="points">
              <mxPoint x="1620" y="555" />
            </Array>
          </mxGeometry>
        </mxCell>
        <mxCell id="y_2ADnTQ-EF7975qrf9e-208" value="" style="endArrow=none;html=1;rounded=0;exitX=0;exitY=0.5;exitDx=0;exitDy=0;entryX=1;entryY=0.5;entryDx=0;entryDy=0;startArrow=ERmany;startFill=0;endFill=0;" parent="1" source="y_2ADnTQ-EF7975qrf9e-187" target="y_2ADnTQ-EF7975qrf9e-140" edge="1">
          <mxGeometry width="50" height="50" relative="1" as="geometry">
            <mxPoint x="1572" y="650" as="sourcePoint" />
            <mxPoint x="1622" y="600" as="targetPoint" />
            <Array as="points">
              <mxPoint x="1632" y="621" />
              <mxPoint x="1632" y="352" />
            </Array>
          </mxGeometry>
        </mxCell>
        <mxCell id="y_2ADnTQ-EF7975qrf9e-215" value="Suppliers" style="shape=table;startSize=24;container=1;collapsible=1;childLayout=tableLayout;fixedRows=1;rowLines=0;fontStyle=1;align=center;resizeLast=1;" parent="1" vertex="1">
          <mxGeometry x="1452" y="732" width="132" height="156" as="geometry" />
        </mxCell>
        <mxCell id="y_2ADnTQ-EF7975qrf9e-216" value="" style="shape=tableRow;horizontal=0;startSize=0;swimlaneHead=0;swimlaneBody=0;fillColor=none;collapsible=0;dropTarget=0;points=[[0,0.5],[1,0.5]];portConstraint=eastwest;top=0;left=0;right=0;bottom=1;" parent="y_2ADnTQ-EF7975qrf9e-215" vertex="1">
          <mxGeometry y="24" width="132" height="30" as="geometry" />
        </mxCell>
        <mxCell id="y_2ADnTQ-EF7975qrf9e-217" value="PK" style="shape=partialRectangle;connectable=0;fillColor=none;top=0;left=0;bottom=0;right=0;fontStyle=1;overflow=hidden;" parent="y_2ADnTQ-EF7975qrf9e-216" vertex="1">
          <mxGeometry width="30" height="30" as="geometry">
            <mxRectangle width="30" height="30" as="alternateBounds" />
          </mxGeometry>
        </mxCell>
        <mxCell id="y_2ADnTQ-EF7975qrf9e-218" value="id" style="shape=partialRectangle;connectable=0;fillColor=none;top=0;left=0;bottom=0;right=0;align=left;spacingLeft=6;fontStyle=5;overflow=hidden;" parent="y_2ADnTQ-EF7975qrf9e-216" vertex="1">
          <mxGeometry x="30" width="102" height="30" as="geometry">
            <mxRectangle width="102" height="30" as="alternateBounds" />
          </mxGeometry>
        </mxCell>
        <mxCell id="y_2ADnTQ-EF7975qrf9e-219" value="" style="shape=tableRow;horizontal=0;startSize=0;swimlaneHead=0;swimlaneBody=0;fillColor=none;collapsible=0;dropTarget=0;points=[[0,0.5],[1,0.5]];portConstraint=eastwest;top=0;left=0;right=0;bottom=0;" parent="y_2ADnTQ-EF7975qrf9e-215" vertex="1">
          <mxGeometry y="54" width="132" height="30" as="geometry" />
        </mxCell>
        <mxCell id="y_2ADnTQ-EF7975qrf9e-220" value="" style="shape=partialRectangle;connectable=0;fillColor=none;top=0;left=0;bottom=0;right=0;editable=1;overflow=hidden;" parent="y_2ADnTQ-EF7975qrf9e-219" vertex="1">
          <mxGeometry width="30" height="30" as="geometry">
            <mxRectangle width="30" height="30" as="alternateBounds" />
          </mxGeometry>
        </mxCell>
        <mxCell id="y_2ADnTQ-EF7975qrf9e-221" value="title" style="shape=partialRectangle;connectable=0;fillColor=none;top=0;left=0;bottom=0;right=0;align=left;spacingLeft=6;overflow=hidden;" parent="y_2ADnTQ-EF7975qrf9e-219" vertex="1">
          <mxGeometry x="30" width="102" height="30" as="geometry">
            <mxRectangle width="102" height="30" as="alternateBounds" />
          </mxGeometry>
        </mxCell>
        <mxCell id="y_2ADnTQ-EF7975qrf9e-222" value="" style="shape=tableRow;horizontal=0;startSize=0;swimlaneHead=0;swimlaneBody=0;fillColor=none;collapsible=0;dropTarget=0;points=[[0,0.5],[1,0.5]];portConstraint=eastwest;top=0;left=0;right=0;bottom=0;" parent="y_2ADnTQ-EF7975qrf9e-215" vertex="1">
          <mxGeometry y="84" width="132" height="30" as="geometry" />
        </mxCell>
        <mxCell id="y_2ADnTQ-EF7975qrf9e-223" value="" style="shape=partialRectangle;connectable=0;fillColor=none;top=0;left=0;bottom=0;right=0;editable=1;overflow=hidden;" parent="y_2ADnTQ-EF7975qrf9e-222" vertex="1">
          <mxGeometry width="30" height="30" as="geometry">
            <mxRectangle width="30" height="30" as="alternateBounds" />
          </mxGeometry>
        </mxCell>
        <mxCell id="y_2ADnTQ-EF7975qrf9e-224" value="Post" style="shape=partialRectangle;connectable=0;fillColor=none;top=0;left=0;bottom=0;right=0;align=left;spacingLeft=6;overflow=hidden;" parent="y_2ADnTQ-EF7975qrf9e-222" vertex="1">
          <mxGeometry x="30" width="102" height="30" as="geometry">
            <mxRectangle width="102" height="30" as="alternateBounds" />
          </mxGeometry>
        </mxCell>
        <mxCell id="y_2ADnTQ-EF7975qrf9e-225" value="" style="shape=tableRow;horizontal=0;startSize=0;swimlaneHead=0;swimlaneBody=0;fillColor=none;collapsible=0;dropTarget=0;points=[[0,0.5],[1,0.5]];portConstraint=eastwest;top=0;left=0;right=0;bottom=0;" parent="y_2ADnTQ-EF7975qrf9e-215" vertex="1">
          <mxGeometry y="114" width="132" height="20" as="geometry" />
        </mxCell>
        <mxCell id="y_2ADnTQ-EF7975qrf9e-226" value="" style="shape=partialRectangle;connectable=0;fillColor=none;top=0;left=0;bottom=0;right=0;editable=1;overflow=hidden;" parent="y_2ADnTQ-EF7975qrf9e-225" vertex="1">
          <mxGeometry width="30" height="20" as="geometry">
            <mxRectangle width="30" height="20" as="alternateBounds" />
          </mxGeometry>
        </mxCell>
        <mxCell id="y_2ADnTQ-EF7975qrf9e-227" value="Address" style="shape=partialRectangle;connectable=0;fillColor=none;top=0;left=0;bottom=0;right=0;align=left;spacingLeft=6;overflow=hidden;" parent="y_2ADnTQ-EF7975qrf9e-225" vertex="1">
          <mxGeometry x="30" width="102" height="20" as="geometry">
            <mxRectangle width="102" height="20" as="alternateBounds" />
          </mxGeometry>
        </mxCell>
        <mxCell id="y_2ADnTQ-EF7975qrf9e-257" value="" style="shape=tableRow;horizontal=0;startSize=0;swimlaneHead=0;swimlaneBody=0;fillColor=none;collapsible=0;dropTarget=0;points=[[0,0.5],[1,0.5]];portConstraint=eastwest;top=0;left=0;right=0;bottom=0;" parent="y_2ADnTQ-EF7975qrf9e-215" vertex="1">
          <mxGeometry y="134" width="132" height="20" as="geometry" />
        </mxCell>
        <mxCell id="y_2ADnTQ-EF7975qrf9e-258" value="" style="shape=partialRectangle;connectable=0;fillColor=none;top=0;left=0;bottom=0;right=0;editable=1;overflow=hidden;" parent="y_2ADnTQ-EF7975qrf9e-257" vertex="1">
          <mxGeometry width="30" height="20" as="geometry">
            <mxRectangle width="30" height="20" as="alternateBounds" />
          </mxGeometry>
        </mxCell>
        <mxCell id="y_2ADnTQ-EF7975qrf9e-259" value="Warehouse_id" style="shape=partialRectangle;connectable=0;fillColor=none;top=0;left=0;bottom=0;right=0;align=left;spacingLeft=6;overflow=hidden;" parent="y_2ADnTQ-EF7975qrf9e-257" vertex="1">
          <mxGeometry x="30" width="102" height="20" as="geometry">
            <mxRectangle width="102" height="20" as="alternateBounds" />
          </mxGeometry>
        </mxCell>
        <mxCell id="y_2ADnTQ-EF7975qrf9e-232" style="edgeStyle=orthogonalEdgeStyle;rounded=0;orthogonalLoop=1;jettySize=auto;html=1;entryX=-0.035;entryY=0.756;entryDx=0;entryDy=0;entryPerimeter=0;" parent="1" source="y_2ADnTQ-EF7975qrf9e-101" target="y_2ADnTQ-EF7975qrf9e-216" edge="1">
          <mxGeometry relative="1" as="geometry">
            <mxPoint x="1404" y="588" as="sourcePoint" />
            <mxPoint x="1404" y="767" as="targetPoint" />
            <Array as="points">
              <mxPoint x="1392" y="585" />
              <mxPoint x="1392" y="779" />
            </Array>
          </mxGeometry>
        </mxCell>
        <mxCell id="y_2ADnTQ-EF7975qrf9e-233" value="warehouse" style="shape=table;startSize=30;container=1;collapsible=1;childLayout=tableLayout;fixedRows=1;rowLines=0;fontStyle=1;align=center;resizeLast=1;" parent="1" vertex="1">
          <mxGeometry x="1680" y="732" width="132" height="120" as="geometry" />
        </mxCell>
        <mxCell id="y_2ADnTQ-EF7975qrf9e-234" value="" style="shape=tableRow;horizontal=0;startSize=0;swimlaneHead=0;swimlaneBody=0;fillColor=none;collapsible=0;dropTarget=0;points=[[0,0.5],[1,0.5]];portConstraint=eastwest;top=0;left=0;right=0;bottom=1;" parent="y_2ADnTQ-EF7975qrf9e-233" vertex="1">
          <mxGeometry y="30" width="132" height="30" as="geometry" />
        </mxCell>
        <mxCell id="y_2ADnTQ-EF7975qrf9e-235" value="PK" style="shape=partialRectangle;connectable=0;fillColor=none;top=0;left=0;bottom=0;right=0;fontStyle=1;overflow=hidden;" parent="y_2ADnTQ-EF7975qrf9e-234" vertex="1">
          <mxGeometry width="30" height="30" as="geometry">
            <mxRectangle width="30" height="30" as="alternateBounds" />
          </mxGeometry>
        </mxCell>
        <mxCell id="y_2ADnTQ-EF7975qrf9e-236" value="id" style="shape=partialRectangle;connectable=0;fillColor=none;top=0;left=0;bottom=0;right=0;align=left;spacingLeft=6;fontStyle=5;overflow=hidden;" parent="y_2ADnTQ-EF7975qrf9e-234" vertex="1">
          <mxGeometry x="30" width="102" height="30" as="geometry">
            <mxRectangle width="102" height="30" as="alternateBounds" />
          </mxGeometry>
        </mxCell>
        <mxCell id="y_2ADnTQ-EF7975qrf9e-237" value="" style="shape=tableRow;horizontal=0;startSize=0;swimlaneHead=0;swimlaneBody=0;fillColor=none;collapsible=0;dropTarget=0;points=[[0,0.5],[1,0.5]];portConstraint=eastwest;top=0;left=0;right=0;bottom=0;" parent="y_2ADnTQ-EF7975qrf9e-233" vertex="1">
          <mxGeometry y="60" width="132" height="30" as="geometry" />
        </mxCell>
        <mxCell id="y_2ADnTQ-EF7975qrf9e-238" value="" style="shape=partialRectangle;connectable=0;fillColor=none;top=0;left=0;bottom=0;right=0;editable=1;overflow=hidden;" parent="y_2ADnTQ-EF7975qrf9e-237" vertex="1">
          <mxGeometry width="30" height="30" as="geometry">
            <mxRectangle width="30" height="30" as="alternateBounds" />
          </mxGeometry>
        </mxCell>
        <mxCell id="y_2ADnTQ-EF7975qrf9e-239" value="name" style="shape=partialRectangle;connectable=0;fillColor=none;top=0;left=0;bottom=0;right=0;align=left;spacingLeft=6;overflow=hidden;" parent="y_2ADnTQ-EF7975qrf9e-237" vertex="1">
          <mxGeometry x="30" width="102" height="30" as="geometry">
            <mxRectangle width="102" height="30" as="alternateBounds" />
          </mxGeometry>
        </mxCell>
        <mxCell id="y_2ADnTQ-EF7975qrf9e-243" value="" style="shape=tableRow;horizontal=0;startSize=0;swimlaneHead=0;swimlaneBody=0;fillColor=none;collapsible=0;dropTarget=0;points=[[0,0.5],[1,0.5]];portConstraint=eastwest;top=0;left=0;right=0;bottom=0;" parent="y_2ADnTQ-EF7975qrf9e-233" vertex="1">
          <mxGeometry y="90" width="132" height="30" as="geometry" />
        </mxCell>
        <mxCell id="y_2ADnTQ-EF7975qrf9e-244" value="" style="shape=partialRectangle;connectable=0;fillColor=none;top=0;left=0;bottom=0;right=0;editable=1;overflow=hidden;" parent="y_2ADnTQ-EF7975qrf9e-243" vertex="1">
          <mxGeometry width="30" height="30" as="geometry">
            <mxRectangle width="30" height="30" as="alternateBounds" />
          </mxGeometry>
        </mxCell>
        <mxCell id="y_2ADnTQ-EF7975qrf9e-245" value="Location_id" style="shape=partialRectangle;connectable=0;fillColor=none;top=0;left=0;bottom=0;right=0;align=left;spacingLeft=6;overflow=hidden;" parent="y_2ADnTQ-EF7975qrf9e-243" vertex="1">
          <mxGeometry x="30" width="102" height="30" as="geometry">
            <mxRectangle width="102" height="30" as="alternateBounds" />
          </mxGeometry>
        </mxCell>
        <mxCell id="y_2ADnTQ-EF7975qrf9e-247" value="" style="endArrow=classic;html=1;rounded=0;exitX=1;exitY=0.5;exitDx=0;exitDy=0;entryX=1.023;entryY=0.689;entryDx=0;entryDy=0;entryPerimeter=0;" parent="1" source="y_2ADnTQ-EF7975qrf9e-243" target="y_2ADnTQ-EF7975qrf9e-194" edge="1">
          <mxGeometry width="50" height="50" relative="1" as="geometry">
            <mxPoint x="1820" y="780" as="sourcePoint" />
            <mxPoint x="1892" y="676" as="targetPoint" />
            <Array as="points">
              <mxPoint x="2004" y="840" />
              <mxPoint x="2160" y="840" />
              <mxPoint x="2160" y="553" />
            </Array>
          </mxGeometry>
        </mxCell>
        <mxCell id="y_2ADnTQ-EF7975qrf9e-249" value="" style="endArrow=classic;html=1;rounded=0;entryX=1;entryY=0.5;entryDx=0;entryDy=0;exitX=0;exitY=0.5;exitDx=0;exitDy=0;" parent="1" source="y_2ADnTQ-EF7975qrf9e-234" target="y_2ADnTQ-EF7975qrf9e-257" edge="1">
          <mxGeometry width="50" height="50" relative="1" as="geometry">
            <mxPoint x="1632" y="780" as="sourcePoint" />
            <mxPoint x="1680" y="780" as="targetPoint" />
            <Array as="points">
              <mxPoint x="1632" y="780" />
              <mxPoint x="1632" y="876" />
            </Array>
          </mxGeometry>
        </mxCell>
        <mxCell id="a_-TRtNWTrbhx3Ms-q2w-1" value="" style="endArrow=none;html=1;rounded=0;startArrow=ERmany;startFill=0;endFill=0;entryX=0;entryY=0.5;entryDx=0;entryDy=0;" edge="1" parent="1" source="y_2ADnTQ-EF7975qrf9e-152" target="y_2ADnTQ-EF7975qrf9e-173">
          <mxGeometry width="50" height="50" relative="1" as="geometry">
            <mxPoint x="1597" y="462" as="sourcePoint" />
            <mxPoint x="1592" y="380.5" as="targetPoint" />
            <Array as="points">
              <mxPoint x="1644" y="456" />
            </Array>
          </mxGeometry>
        </mxCell>
      </root>
    </mxGraphModel>
  </diagram>
</mxfile>
